<svg width="2560" height="1440" xmlns="http://www.w3.org/2000/svg" xmlns:xlink="http://www.w3.org/1999/xlink" overflow="hidden"><defs><clipPath id="clip0"><rect x="0" y="0" width="2560" height="1440"/></clipPath><linearGradient x1="547.87" y1="-451.727" x2="2014.13" y2="778.77" gradientUnits="userSpaceOnUse" spreadMethod="reflect" id="fill1"><stop offset="0" stop-color="#EFEDEA"/><stop offset="0.13" stop-color="#EFEDEA"/><stop offset="0.47" stop-color="#DAD5CC"/><stop offset="1" stop-color="#909382"/></linearGradient><linearGradient x1="176.046" y1="123.499" x2="1119.95" y2="915.636" gradientUnits="userSpaceOnUse" spreadMethod="reflect" id="fill2"><stop offset="0" stop-color="#EFEDEA"/><stop offset="0.13" stop-color="#EFEDEA"/><stop offset="0.47" stop-color="#DAD5CC"/><stop offset="1" stop-color="#909382"/></linearGradient><linearGradient x1="1440.05" y1="123.499" x2="2383.95" y2="915.636" gradientUnits="userSpaceOnUse" spreadMethod="reflect" id="fill3"><stop offset="0" stop-color="#EFEDEA"/><stop offset="0.13" stop-color="#EFEDEA"/><stop offset="0.47" stop-color="#DAD5CC"/><stop offset="1" stop-color="#909382"/></linearGradient><linearGradient x1="74.9827" y1="778.712" x2="841.017" y2="1421.57" gradientUnits="userSpaceOnUse" spreadMethod="reflect" id="fill4"><stop offset="0" stop-color="#EFEDEA"/><stop offset="0.13" stop-color="#EFEDEA"/><stop offset="0.47" stop-color="#DAD5CC"/><stop offset="1" stop-color="#909382"/></linearGradient><linearGradient x1="1718.98" y1="783.712" x2="2485.02" y2="1426.58" gradientUnits="userSpaceOnUse" spreadMethod="reflect" id="fill5"><stop offset="0" stop-color="#EFEDEA"/><stop offset="0.13" stop-color="#EFEDEA"/><stop offset="0.47" stop-color="#DAD5CC"/><stop offset="1" stop-color="#909382"/></linearGradient><linearGradient x1="910.48" y1="790.038" x2="1649.52" y2="1410.25" gradientUnits="userSpaceOnUse" spreadMethod="reflect" id="fill6"><stop offset="0" stop-color="#EFEDEA"/><stop offset="0.13" stop-color="#EFEDEA"/><stop offset="0.47" stop-color="#DAD5CC"/><stop offset="1" stop-color="#909382"/></linearGradient></defs><g clip-path="url(#clip0)"><rect x="0" y="0" width="2560" height="1440.19" fill="#FFFFFF"/><path d="M18 72.2308C18 45.0431 40.0371 23.003 67.2213 23.003L2492.78 23.003C2519.96 23.003 2542 45.0431 2542 72.2308L2542 1367.96C2542 1395.14 2519.96 1417.18 2492.78 1417.18L67.2213 1417.18C40.0371 1417.18 18 1395.14 18 1367.96Z" fill="#3B3838" fill-rule="evenodd"/><path d="M90 117.182C90 104.386 100.372 94.0123 113.166 94.0123L2448.83 94.0123C2461.63 94.0123 2472 104.386 2472 117.182L2472 209.861C2472 222.657 2461.63 233.03 2448.83 233.03L113.166 233.03C100.372 233.03 90 222.657 90 209.861Z" fill="url(#fill1)" fill-rule="evenodd"/><path d="M38 316.803C38 300.916 50.877 288.037 66.7615 288.037L1229.24 288.037C1245.12 288.037 1258 300.916 1258 316.803L1258 722.332C1258 738.219 1245.12 751.098 1229.24 751.098L66.7615 751.098C50.877 751.098 38 738.219 38 722.332Z" fill="url(#fill2)" fill-rule="evenodd"/><path d="M1302 316.803C1302 300.916 1314.88 288.037 1330.76 288.037L2493.24 288.037C2509.12 288.037 2522 300.916 2522 316.803L2522 722.332C2522 738.219 2509.12 751.098 2493.24 751.098L1330.76 751.098C1314.88 751.098 1302 738.219 1302 722.332Z" fill="url(#fill3)" fill-rule="evenodd"/><path d="M51.9999 827.176C51.9999 815.539 61.4325 806.105 73.0681 806.105L842.932 806.105C854.568 806.105 864 815.539 864 827.176L864 1373.11C864 1384.75 854.568 1394.18 842.932 1394.18L73.0681 1394.18C61.4325 1394.18 51.9999 1384.75 51.9999 1373.11Z" fill="url(#fill4)" fill-rule="evenodd"/><path d="M1696 825.913C1696 817.735 1702.63 811.106 1710.81 811.106L2493.19 811.106C2501.37 811.106 2508 817.735 2508 825.913L2508 1384.37C2508 1392.55 2501.37 1399.18 2493.19 1399.18L1710.81 1399.18C1702.63 1399.18 1696 1392.55 1696 1384.37Z" fill="url(#fill5)" fill-rule="evenodd"/><path d="M897 843.583C897 822.884 913.777 806.105 934.473 806.105L1625.53 806.105C1646.22 806.105 1663 822.884 1663 843.583L1663 1356.7C1663 1377.4 1646.22 1394.18 1625.53 1394.18L934.473 1394.18C913.777 1394.18 897 1377.4 897 1356.7Z" fill="url(#fill6)" fill-rule="evenodd"/></g></svg>