<svg width="2560" height="1440" xmlns="http://www.w3.org/2000/svg" xmlns:xlink="http://www.w3.org/1999/xlink" overflow="hidden"><defs><clipPath id="clip0"><rect x="0" y="0" width="2560" height="1440"/></clipPath><linearGradient x1="561.419" y1="-460.78" x2="2001.58" y2="747.817" gradientUnits="userSpaceOnUse" spreadMethod="reflect" id="fill1"><stop offset="0" stop-color="#EFEDEA"/><stop offset="0.13" stop-color="#EFEDEA"/><stop offset="0.47" stop-color="#DAD5CC"/><stop offset="1" stop-color="#909382"/></linearGradient><linearGradient x1="223.571" y1="169.617" x2="702.429" y2="571.479" gradientUnits="userSpaceOnUse" spreadMethod="reflect" id="fill2"><stop offset="0" stop-color="#EFEDEA"/><stop offset="0.13" stop-color="#EFEDEA"/><stop offset="0.47" stop-color="#DAD5CC"/><stop offset="1" stop-color="#909382"/></linearGradient><linearGradient x1="1014.36" y1="169.863" x2="1492.64" y2="571.233" gradientUnits="userSpaceOnUse" spreadMethod="reflect" id="fill3"><stop offset="0" stop-color="#EFEDEA"/><stop offset="0.13" stop-color="#EFEDEA"/><stop offset="0.47" stop-color="#DAD5CC"/><stop offset="1" stop-color="#909382"/></linearGradient><linearGradient x1="1806.36" y1="169.863" x2="2284.64" y2="571.233" gradientUnits="userSpaceOnUse" spreadMethod="reflect" id="fill4"><stop offset="0" stop-color="#EFEDEA"/><stop offset="0.13" stop-color="#EFEDEA"/><stop offset="0.47" stop-color="#DAD5CC"/><stop offset="1" stop-color="#909382"/></linearGradient><linearGradient x1="492.352" y1="511.84" x2="1019.65" y2="954.351" gradientUnits="userSpaceOnUse" spreadMethod="reflect" id="fill5"><stop offset="0" stop-color="#EFEDEA"/><stop offset="0.13" stop-color="#EFEDEA"/><stop offset="0.47" stop-color="#DAD5CC"/><stop offset="1" stop-color="#909382"/></linearGradient><linearGradient x1="1541.35" y1="511.84" x2="2068.65" y2="954.351" gradientUnits="userSpaceOnUse" spreadMethod="reflect" id="fill6"><stop offset="0" stop-color="#EFEDEA"/><stop offset="0.13" stop-color="#EFEDEA"/><stop offset="0.47" stop-color="#DAD5CC"/><stop offset="1" stop-color="#909382"/></linearGradient><linearGradient x1="198.733" y1="923.316" x2="776.267" y2="1407.99" gradientUnits="userSpaceOnUse" spreadMethod="reflect" id="fill7"><stop offset="0" stop-color="#EFEDEA"/><stop offset="0.13" stop-color="#EFEDEA"/><stop offset="0.47" stop-color="#DAD5CC"/><stop offset="1" stop-color="#909382"/></linearGradient><linearGradient x1="1779.27" y1="923.25" x2="2361.73" y2="1412.05" gradientUnits="userSpaceOnUse" spreadMethod="reflect" id="fill8"><stop offset="0" stop-color="#EFEDEA"/><stop offset="0.13" stop-color="#EFEDEA"/><stop offset="0.47" stop-color="#DAD5CC"/><stop offset="1" stop-color="#909382"/></linearGradient><linearGradient x1="988.763" y1="923.663" x2="1570.24" y2="1411.64" gradientUnits="userSpaceOnUse" spreadMethod="reflect" id="fill9"><stop offset="0" stop-color="#EFEDEA"/><stop offset="0.13" stop-color="#EFEDEA"/><stop offset="0.47" stop-color="#DAD5CC"/><stop offset="1" stop-color="#909382"/></linearGradient></defs><g clip-path="url(#clip0)"><rect x="0" y="0" width="2560" height="1440.19" fill="#FFFFFF"/><path d="M30.5 63.4362C30.5 38.6199 50.6149 18.5024 75.4279 18.5024L2483.57 18.5024C2508.39 18.5024 2528.5 38.6199 2528.5 63.4362L2528.5 1377.75C2528.5 1402.57 2508.39 1422.69 2483.57 1422.69L75.4279 1422.69C50.6149 1422.69 30.5 1402.57 30.5 1377.75Z" stroke="#172C51" stroke-width="1.33316" stroke-miterlimit="8" fill="#3B3838" fill-rule="evenodd"/><path d="M90.5 114.848C90.5 106.931 96.917 100.513 104.833 100.513L2458.17 100.513C2466.08 100.513 2472.5 106.931 2472.5 114.848L2472.5 172.19C2472.5 180.106 2466.08 186.524 2458.17 186.524L104.833 186.524C96.917 186.524 90.5 180.106 90.5 172.19Z" stroke="#172C51" stroke-width="1.33316" stroke-miterlimit="8" fill="url(#fill1)" fill-rule="evenodd"/><path d="M177.5 248.696C177.5 235.349 188.318 224.529 201.663 224.529L724.337 224.529C737.682 224.529 748.5 235.349 748.5 248.696L748.5 492.401C748.5 505.748 737.682 516.567 724.337 516.567L201.663 516.567C188.318 516.567 177.5 505.748 177.5 492.401Z" stroke="#172C51" stroke-width="1.33316" stroke-miterlimit="8" fill="url(#fill2)" fill-rule="evenodd"/><path d="M968.5 248.695C968.5 235.349 979.318 224.529 992.663 224.529L1514.34 224.529C1527.68 224.529 1538.5 235.349 1538.5 248.695L1538.5 492.401C1538.5 505.748 1527.68 516.567 1514.34 516.567L992.663 516.567C979.318 516.567 968.5 505.748 968.5 492.401Z" stroke="#172C51" stroke-width="1.33316" stroke-miterlimit="8" fill="url(#fill3)" fill-rule="evenodd"/><path d="M1760.5 248.695C1760.5 235.349 1771.32 224.529 1784.66 224.529L2306.34 224.529C2319.68 224.529 2330.5 235.349 2330.5 248.695L2330.5 492.401C2330.5 505.748 2319.68 516.567 2306.34 516.567L1784.66 516.567C1771.32 516.567 1760.5 505.748 1760.5 492.401Z" stroke="#172C51" stroke-width="1.33316" stroke-miterlimit="8" fill="url(#fill4)" fill-rule="evenodd"/><path d="M456.5 582.618C456.5 567.129 469.055 554.572 484.542 554.572L1027.46 554.572C1042.94 554.572 1055.5 567.129 1055.5 582.618L1055.5 883.573C1055.5 899.062 1042.94 911.619 1027.46 911.619L484.542 911.619C469.055 911.619 456.5 899.062 456.5 883.573Z" stroke="#172C51" stroke-width="1.33316" stroke-miterlimit="8" fill="url(#fill5)" fill-rule="evenodd"/><path d="M1505.5 582.618C1505.5 567.129 1518.06 554.572 1533.54 554.572L2076.46 554.572C2091.94 554.572 2104.5 567.129 2104.5 582.618L2104.5 883.573C2104.5 899.062 2091.94 911.619 2076.46 911.619L1533.54 911.619C1518.06 911.619 1505.5 899.062 1505.5 883.573Z" stroke="#172C51" stroke-width="1.33316" stroke-miterlimit="8" fill="url(#fill6)" fill-rule="evenodd"/><path d="M177.5 970.682C177.5 958.5 187.375 948.624 199.556 948.624L775.444 948.624C787.625 948.624 797.5 958.5 797.5 970.682L797.5 1360.62C797.5 1372.8 787.625 1382.68 775.444 1382.68L199.556 1382.68C187.375 1382.68 177.5 1372.8 177.5 1360.62Z" stroke="#172C51" stroke-width="1.33316" stroke-miterlimit="8" fill="url(#fill7)" fill-rule="evenodd"/><path d="M1760.5 968.19C1760.5 955.727 1770.6 945.623 1783.06 945.623L2357.94 945.623C2370.4 945.623 2380.5 955.727 2380.5 968.19L2380.5 1367.11C2380.5 1379.58 2370.4 1389.68 2357.94 1389.68L1783.06 1389.68C1770.6 1389.68 1760.5 1379.58 1760.5 1367.11Z" stroke="#172C51" stroke-width="1.33316" stroke-miterlimit="8" fill="url(#fill8)" fill-rule="evenodd"/><path d="M969.5 960.239C969.5 952.719 975.595 946.623 983.114 946.623L1575.89 946.623C1583.41 946.623 1589.5 952.719 1589.5 960.239L1589.5 1375.07C1589.5 1382.58 1583.41 1388.68 1575.89 1388.68L983.114 1388.68C975.595 1388.68 969.5 1382.58 969.5 1375.07Z" stroke="#172C51" stroke-width="1.33316" stroke-miterlimit="8" fill="url(#fill9)" fill-rule="evenodd"/></g></svg>