<svg width="2560" height="1440" xmlns="http://www.w3.org/2000/svg" xmlns:xlink="http://www.w3.org/1999/xlink" overflow="hidden"><defs><clipPath id="clip0"><rect x="0" y="0" width="2560" height="1440"/></clipPath><linearGradient x1="269.206" y1="-77.6607" x2="1016.79" y2="549.722" gradientUnits="userSpaceOnUse" spreadMethod="reflect" id="fill1"><stop offset="0" stop-color="#EFEDEA"/><stop offset="0.13" stop-color="#EFEDEA"/><stop offset="0.47" stop-color="#DAD5CC"/><stop offset="1" stop-color="#909382"/></linearGradient><linearGradient x1="1442.97" y1="-93.1404" x2="2318.03" y2="641.212" gradientUnits="userSpaceOnUse" spreadMethod="reflect" id="fill2"><stop offset="0" stop-color="#EFEDEA"/><stop offset="0.13" stop-color="#EFEDEA"/><stop offset="0.47" stop-color="#DAD5CC"/><stop offset="1" stop-color="#909382"/></linearGradient><linearGradient x1="72.5513" y1="433.633" x2="725.449" y2="981.551" gradientUnits="userSpaceOnUse" spreadMethod="reflect" id="fill3"><stop offset="0" stop-color="#EFEDEA"/><stop offset="0.13" stop-color="#EFEDEA"/><stop offset="0.47" stop-color="#DAD5CC"/><stop offset="1" stop-color="#909382"/></linearGradient><linearGradient x1="856.102" y1="405.563" x2="1575.9" y2="1009.62" gradientUnits="userSpaceOnUse" spreadMethod="reflect" id="fill4"><stop offset="0" stop-color="#EFEDEA"/><stop offset="0.13" stop-color="#EFEDEA"/><stop offset="0.47" stop-color="#DAD5CC"/><stop offset="1" stop-color="#909382"/></linearGradient><linearGradient x1="1737.65" y1="408.103" x2="2457.35" y2="1012.08" gradientUnits="userSpaceOnUse" spreadMethod="reflect" id="fill5"><stop offset="0" stop-color="#EFEDEA"/><stop offset="0.13" stop-color="#EFEDEA"/><stop offset="0.47" stop-color="#DAD5CC"/><stop offset="1" stop-color="#909382"/></linearGradient><linearGradient x1="437.329" y1="495.916" x2="2115.67" y2="1904.4" gradientUnits="userSpaceOnUse" spreadMethod="reflect" id="fill6"><stop offset="0" stop-color="#EFEDEA"/><stop offset="0.13" stop-color="#EFEDEA"/><stop offset="0.47" stop-color="#DAD5CC"/><stop offset="1" stop-color="#909382"/></linearGradient></defs><g clip-path="url(#clip0)"><rect x="0" y="0" width="2560" height="1440.19" fill="#FFFFFF"/><path d="M14.4999 56.8223C14.4999 33.4493 33.445 14.5018 56.8148 14.5018L2495.19 14.5018C2518.56 14.5018 2537.5 33.4493 2537.5 56.8223L2537.5 1392.37C2537.5 1415.74 2518.56 1434.69 2495.19 1434.69L56.8148 1434.69C33.445 1434.69 14.4999 1415.74 14.4999 1392.37Z" stroke="#172C51" stroke-width="1.33316" stroke-miterlimit="8" fill="#3B3838" fill-rule="evenodd"/><path d="M63.5 190.359C63.5 177.746 73.7231 167.522 86.3339 167.522L1199.67 167.522C1212.28 167.522 1222.5 177.746 1222.5 190.359L1222.5 281.702C1222.5 294.315 1212.28 304.54 1199.67 304.54L86.3339 304.54C73.7231 304.54 63.5 294.315 63.5 281.702Z" stroke="#172C51" stroke-width="1.33316" stroke-miterlimit="8" fill="url(#fill1)" fill-rule="evenodd"/><path d="M1280.5 134.826C1280.5 115.875 1295.86 100.513 1314.81 100.513L2446.19 100.513C2465.14 100.513 2480.5 115.875 2480.5 134.826L2480.5 413.245C2480.5 432.196 2465.14 447.558 2446.19 447.558L1314.81 447.558C1295.86 447.558 1280.5 432.196 1280.5 413.245Z" stroke="#172C51" stroke-width="1.33316" stroke-miterlimit="8" fill="url(#fill2)" fill-rule="evenodd"/><path d="M31.5 520.395C31.5 499.501 48.4358 482.563 69.3271 482.563L728.673 482.563C749.564 482.563 766.5 499.501 766.5 520.395L766.5 894.789C766.5 915.683 749.564 932.621 728.673 932.621L69.3271 932.621C48.4358 932.621 31.5 915.683 31.5 894.789Z" stroke="#172C51" stroke-width="1.33316" stroke-miterlimit="8" fill="url(#fill3)" fill-rule="evenodd"/><path d="M791.5 522.352C791.5 500.377 809.312 482.563 831.284 482.563L1600.72 482.563C1622.69 482.563 1640.5 500.377 1640.5 522.352L1640.5 892.832C1640.5 914.807 1622.69 932.621 1600.72 932.621L831.284 932.621C809.312 932.621 791.5 914.807 791.5 892.832Z" stroke="#172C51" stroke-width="1.33316" stroke-miterlimit="8" fill="url(#fill4)" fill-rule="evenodd"/><path d="M1673.5 524.441C1673.5 502.417 1691.35 484.563 1713.37 484.563L2481.63 484.563C2503.65 484.563 2521.5 502.417 2521.5 524.441L2521.5 895.744C2521.5 917.768 2503.65 935.622 2481.63 935.622L1713.37 935.622C1691.35 935.622 1673.5 917.768 1673.5 895.744Z" stroke="#172C51" stroke-width="1.33316" stroke-miterlimit="8" fill="url(#fill5)" fill-rule="evenodd"/><path d="M31.5 1021.63C31.5 998.435 50.3046 979.628 73.5011 979.628L2479.5 979.628C2502.7 979.628 2521.5 998.435 2521.5 1021.63L2521.5 1378.68C2521.5 1401.88 2502.7 1420.68 2479.5 1420.68L73.5011 1420.68C50.3046 1420.68 31.5 1401.88 31.5 1378.68Z" stroke="#172C51" stroke-width="1.33316" stroke-miterlimit="8" fill="url(#fill6)" fill-rule="evenodd"/></g></svg>